<svg id="Layer_1" data-name="Layer 1" xmlns="http://www.w3.org/2000/svg" viewBox="0 0 100 40">
    <title>logo_btn_apple</title>
    <path d="M64.53,29.05a19.5,19.5,0,0,1-1.94,3.48,17.75,17.75,0,0,1-2.49,3A4.88,4.88,0,0,1,56.89,37a7.91,7.91,0,0,1-3-.71,8.45,8.45,0,0,0-3.18-.7,8.81,8.81,0,0,0-3.28.7,8.82,8.82,0,0,1-2.83.75,4.6,4.6,0,0,1-3.28-1.45,19.52,19.52,0,0,1-2.61-3.12A22,22,0,0,1,36,27a19.84,19.84,0,0,1-1.16-6.53,11.93,11.93,0,0,1,1.56-6.23,9.16,9.16,0,0,1,3.28-3.32,8.8,8.8,0,0,1,4.44-1.25,10.34,10.34,0,0,1,3.42.8,11.24,11.24,0,0,0,2.72.8,16.35,16.35,0,0,0,3-1,9.9,9.9,0,0,1,4.1-.72,8.68,8.68,0,0,1,6.82,3.59,7.6,7.6,0,0,0-4,6.88,7.62,7.62,0,0,0,2.5,5.73,8.16,8.16,0,0,0,2.49,1.64c-.2.58-.41,1.13-.63,1.66Zm-7-27.33a7.7,7.7,0,0,1-2,5C54,8.61,52.12,9.68,50,9.51a5.07,5.07,0,0,1,0-.68,7.91,7.91,0,0,1,2.09-5.1,8,8,0,0,1,2.54-1.91A7.66,7.66,0,0,1,57.54,1a5.79,5.79,0,0,1,0,.72Z"/></svg>