<svg id="Layer_1" data-name="Layer 1" xmlns="http://www.w3.org/2000/svg" viewBox="0 0 100 40"><defs><style>.cls-1{fill:none;}.cls-2{fill:#034ea2;}</style></defs><title>logo_btn_samsung</title><polygon class="cls-1" points="0 27.65 100 27.65 100 12.35 0 12.35 0 27.65 0 27.65"/><polygon class="cls-2" points="82.58 12.8 82.77 24.02 82.69 24.02 79.41 12.8 74.1 12.8 74.1 26.95 77.62 26.95 77.42 15.34 77.5 15.34 81.03 26.95 86.12 26.95 86.12 12.8 82.58 12.8"/><polygon class="cls-2" points="15.3 12.8 12.65 27.09 16.52 27.09 18.47 14.13 18.55 14.13 20.45 27.09 24.29 27.09 21.66 12.8 15.3 12.8"/><polygon class="cls-2" points="36.9 12.8 35.13 23.73 35.05 23.73 33.29 12.8 27.46 12.8 27.15 27.09 30.73 27.09 30.81 14.25 30.89 14.25 33.28 27.09 36.91 27.09 39.3 14.25 39.37 14.25 39.46 27.09 43.04 27.09 42.72 12.8 36.9 12.8"/><path class="cls-2" d="M6.64,23.06a1.93,1.93,0,0,1,0,1.06,1.24,1.24,0,0,1-1.4,1,1.28,1.28,0,0,1-1.43-1.29V22.4H0v1.1c0,3.19,2.51,4.15,5.19,4.15s4.72-.88,5.06-3.26a7.1,7.1,0,0,0,0-2.35c-.6-3-6-3.88-6.43-5.56a1.72,1.72,0,0,1,0-.75,1.17,1.17,0,0,1,1.3-1,1.22,1.22,0,0,1,1.33,1.3V17H10V16c0-3.12-2.8-3.6-4.82-3.6-2.54,0-4.62.84-5,3.17a5,5,0,0,0,0,1.93c.62,2.92,5.7,3.76,6.44,5.61"/><path class="cls-2" d="M53.1,23a1.77,1.77,0,0,1,0,1,1.23,1.23,0,0,1-1.38,1,1.26,1.26,0,0,1-1.42-1.28V22.38h-3.8v1.09c0,3.16,2.48,4.11,5.14,4.11s4.67-.87,5-3.24a6.76,6.76,0,0,0,0-2.32c-.6-3-6-3.84-6.37-5.5a1.68,1.68,0,0,1,0-.74,1.16,1.16,0,0,1,1.29-.95,1.2,1.2,0,0,1,1.31,1.28V17h3.54V16c0-3.08-2.77-3.56-4.78-3.56-2.51,0-4.57.83-4.94,3.14a4.88,4.88,0,0,0,0,1.9c.61,2.9,5.64,3.73,6.37,5.57"/><path class="cls-2" d="M65.1,25a1.29,1.29,0,0,0,1.37-1,2.44,2.44,0,0,0,0-.55V12.8h3.62V23.05a8.34,8.34,0,0,1,0,.94c-.24,2.67-2.35,3.53-5,3.53s-4.74-.86-5-3.53c0-.14,0-.68,0-.94V12.8h3.61V23.37a3.16,3.16,0,0,0,0,.55,1.29,1.29,0,0,0,1.37,1"/><path class="cls-2" d="M94.91,24.81a1.35,1.35,0,0,0,1.46-1,2.38,2.38,0,0,0,0-.54V21.15H94.94V19.07H100V22.9c0,.27,0,.46,0,.94-.24,2.6-2.49,3.53-5,3.53s-4.79-.93-5-3.53a7.41,7.41,0,0,1-.05-.94v-6a9.29,9.29,0,0,1,.06-.94c.32-2.68,2.48-3.54,5-3.54s4.76.86,5,3.54a7.21,7.21,0,0,1,0,.94v.47h-3.6v-.8a2.89,2.89,0,0,0-.05-.54,1.29,1.29,0,0,0-1.42-1,1.33,1.33,0,0,0-1.43,1,3.48,3.48,0,0,0-.06.67v6.54a3.12,3.12,0,0,0,0,.54,1.33,1.33,0,0,0,1.46,1"/></svg>