<svg id="Layer_1" data-name="Layer 1" xmlns="http://www.w3.org/2000/svg" viewBox="0 0 100 40"><defs><style>.cls-1{fill:#8cc751}</style></defs><path id="path38" class="cls-1" d="M81.26 26.59c-4 0-7.72.06-8.77 0a3.8 3.8 0 0 1-3.7-3.61 19.49 19.49 0 0 1 0-3.5 4.39 4.39 0 0 1 3.71-4h15.01v-3.89H72.34a7.52 7.52 0 0 0-5.25 2.22 8.7 8.7 0 0 0-2.2 5.54 27.64 27.64 0 0 0 0 3.53 8.53 8.53 0 0 0 2.2 5.33 7.74 7.74 0 0 0 5.25 2.22h15.17v-3.88h-6.24"/><path id="path40" class="cls-1" d="M39 11.79v3.88h9.23v14.7h3.9v-14.7h9.23v-3.88z"/><path id="path50" class="cls-1" d="M35 19.13a7.44 7.44 0 0 0-2.19-5.33 8.39 8.39 0 0 0-5.25-2.23c-1.29-.07-6.39-.05-7.59 0a6.7 6.7 0 0 0-3.53 1v-7H12.5v24.86h3.89s-.07-10.18 0-11.29A4 4 0 0 1 20 15.45c1.53-.13 6.12-.1 7.56 0a3.82 3.82 0 0 1 3.55 3.77v11.21H35v-11.3"/></svg>