<svg id="Layer_1" data-name="Layer 1" xmlns="http://www.w3.org/2000/svg" viewBox="0 0 100 40"><defs><style>.cls-1{fill:#ea4335;}.cls-2{fill:#fbbc05;}.cls-3{fill:#4285f4;}.cls-4{fill:#34a853;}</style></defs><title>logo_btn_google</title><path class="cls-1" d="M43.51,21.78a7.43,7.43,0,1,1-7.42-7.41A7.31,7.31,0,0,1,43.51,21.78Zm-3.25,0a4.19,4.19,0,1,0-8.35,0,4.19,4.19,0,1,0,8.35,0Z"/><path class="cls-2" d="M59.54,21.78a7.43,7.43,0,1,1-7.43-7.41A7.31,7.31,0,0,1,59.54,21.78Zm-3.25,0a4.19,4.19,0,1,0-8.36,0,4.19,4.19,0,1,0,8.36,0Z"/><path class="cls-3" d="M74.89,14.82V28.11c0,5.47-3.22,7.7-7,7.7a7.06,7.06,0,0,1-6.56-4.36l2.83-1.18a4.09,4.09,0,0,0,3.73,2.63c2.44,0,4-1.51,4-4.34V27.5h-.11a5.07,5.07,0,0,1-3.9,1.68,7.41,7.41,0,0,1,0-14.81A5.13,5.13,0,0,1,71.69,16h.11v-1.2h3.09ZM72,21.8c0-2.6-1.74-4.51-4-4.51A4.28,4.28,0,0,0,64,21.8a4.25,4.25,0,0,0,4.12,4.46C70.29,26.26,72,24.38,72,21.8Z"/><path class="cls-4" d="M80,7v21.7H76.81V7Z"/><path class="cls-1" d="M92.34,24.21l2.52,1.69a7.38,7.38,0,0,1-6.17,3.28,7.24,7.24,0,0,1-7.34-7.41,7,7,0,0,1,7-7.4,6.87,6.87,0,0,1,6.33,4.71l.34.84L85.1,24a3.76,3.76,0,0,0,3.59,2.24,4.22,4.22,0,0,0,3.65-2.05Zm-7.77-2.66,6.61-2.75a2.86,2.86,0,0,0-2.74-1.57A4.07,4.07,0,0,0,84.57,21.55Z"/><path class="cls-3" d="M16.66,19.85V16.71H27.24a9.91,9.91,0,0,1,.16,1.9A10.34,10.34,0,0,1,24.68,26a10.49,10.49,0,0,1-8,3.23A11.66,11.66,0,0,1,5,17.68,11.66,11.66,0,0,1,16.66,6.19a11,11,0,0,1,7.88,3.16l-2.22,2.22a8,8,0,0,0-5.66-2.24,8.25,8.25,0,0,0-8.25,8.35A8.25,8.25,0,0,0,16.66,26a7.69,7.69,0,0,0,5.8-2.3,6.52,6.52,0,0,0,1.71-3.89Z"/></svg>