<svg id="Layer_1" data-name="Layer 1" xmlns="http://www.w3.org/2000/svg" viewBox="0 0 100 40"><defs><style>.cls-2{fill:#fff}</style></defs><path d="M30.87 35a15 15 0 1 0-15-15 15 15 0 0 0 15 15" fill="#a50034"/><path class="cls-2" d="M30.27 13.42v13.16h4.18V25.4h-2.97V13.42h-1.21zM26.08 17a1.8 1.8 0 1 0-1.8-1.8 1.81 1.81 0 0 0 1.8 1.8"/><path class="cls-2" d="M31.47 7.45h-.59a12.57 12.57 0 1 0 8.87 21.45 12.44 12.44 0 0 0 3.69-8.9v-.56h-9v1.15h7.78v.18a11.4 11.4 0 0 1-19.42 7.28 11.39 11.39 0 0 1 8.08-19.44h.59z"/><path d="M57.17 10.05h-4.51v19.53h13.86v-3.8h-9.35zm19.27 12.09h3.68v3.41a10.35 10.35 0 0 1-3.26.52c-4.06 0-5.41-2.07-5.41-6.25 0-4 1.29-6.35 5.35-6.35a5.22 5.22 0 0 1 4.6 2.06L84.21 13c-1.71-2.5-4.71-3.24-7.51-3.24-6.32 0-9.64 3.45-9.64 10s3 10.09 9.61 10.09a14.32 14.32 0 0 0 7.6-1.9v-9.46h-7.83z" fill="#6b6b6b"/></svg>