<svg id="Layer_1" data-name="Layer 1" xmlns="http://www.w3.org/2000/svg" viewBox="0 0 100 40"><defs><style>.cls-1{fill:#e70026;}.cls-2{fill:#fff;}</style></defs><title>logo_btn_oneplus</title><path class="cls-1" d="M11.21,23.64v1.55h6.2V23.64H15.08V15.88H11.21v1.57h2.32v6.19Z"/><path class="cls-1" d="M22.06,28.32H6.55V12.79H16.63V11.24H5V29.87H23.61V18.22H22.06Z"/><path class="cls-1" d="M23.61,8.13H22.06v3.11H19v1.55h3.1v3.1h1.55v-3.1h3.1V11.24h-3.1Z"/><path class="cls-1" d="M29,11.24V29.87H95V11.24Z"/><path class="cls-2" d="M87.54,15.86a3.07,3.07,0,0,0-1.21.22,2.6,2.6,0,0,0-.89.56,2.3,2.3,0,0,0-.54.81,2.62,2.62,0,0,0,0,2,2,2,0,0,0,.49.69,2.7,2.7,0,0,0,.7.45c.27.11.54.22.81.31l.81.25a4.09,4.09,0,0,1,.7.3,1.64,1.64,0,0,1,.49.45,1.15,1.15,0,0,1,.19.69,1.83,1.83,0,0,1-.12.68,1.54,1.54,0,0,1-.37.53,1.72,1.72,0,0,1-.59.34,2.39,2.39,0,0,1-.79.12,2.43,2.43,0,0,1-.9-.14,3.25,3.25,0,0,1-.62-.32,2.82,2.82,0,0,1-.43-.32A.56.56,0,0,0,85,23.3a.28.28,0,0,0-.16.05.37.37,0,0,0-.13.12l-.36.59a3.84,3.84,0,0,0,1.25.87,3.92,3.92,0,0,0,1.63.33,3.54,3.54,0,0,0,1.3-.23,2.91,2.91,0,0,0,1-.61,2.55,2.55,0,0,0,.59-.92,3.08,3.08,0,0,0,.21-1.14,2.13,2.13,0,0,0-.19-1,2.06,2.06,0,0,0-.5-.66,2.57,2.57,0,0,0-.71-.44,7.85,7.85,0,0,0-.8-.32l-.81-.27a4.1,4.1,0,0,1-.7-.31,1.54,1.54,0,0,1-.5-.44,1,1,0,0,1-.19-.63,1.52,1.52,0,0,1,.11-.57,1.28,1.28,0,0,1,.32-.45,1.41,1.41,0,0,1,.54-.3,2,2,0,0,1,.73-.11,2.41,2.41,0,0,1,.76.1,3.76,3.76,0,0,1,.53.25,2.24,2.24,0,0,1,.36.24.48.48,0,0,0,.25.11.29.29,0,0,0,.17-.05.49.49,0,0,0,.12-.15l.3-.59a3.33,3.33,0,0,0-1.1-.7A4,4,0,0,0,87.54,15.86Zm-49.12,0a4.82,4.82,0,0,0-1.89.36,4.28,4.28,0,0,0-1.47,1,4.52,4.52,0,0,0-1,1.49,5.12,5.12,0,0,0-.33,1.86,5.18,5.18,0,0,0,.33,1.87,4.38,4.38,0,0,0,1,1.48,4.17,4.17,0,0,0,1.47,1,5.28,5.28,0,0,0,3.78,0,4.13,4.13,0,0,0,1.46-1,4.35,4.35,0,0,0,.94-1.48,5,5,0,0,0,.34-1.87,4.92,4.92,0,0,0-.34-1.86,4.35,4.35,0,0,0-.94-1.48,4.27,4.27,0,0,0-1.46-1A4.82,4.82,0,0,0,38.42,15.88Zm23,.09v9.18h1.24V21.72h1.47a4.35,4.35,0,0,0,1.46-.22,3,3,0,0,0,1.08-.6,2.57,2.57,0,0,0,.65-.91,3,3,0,0,0,.23-1.18,3.13,3.13,0,0,0-.21-1.17,2.37,2.37,0,0,0-.63-.9,3,3,0,0,0-1.07-.57,4.89,4.89,0,0,0-1.51-.2Zm7.69,0v9.18h5.22v-1h-4V16Zm6.5,0v5.58A4.22,4.22,0,0,0,75.87,23a3.36,3.36,0,0,0,.73,1.17,3.25,3.25,0,0,0,1.15.78,3.88,3.88,0,0,0,1.52.28A3.94,3.94,0,0,0,80.8,25,3.44,3.44,0,0,0,82,24.2,3.49,3.49,0,0,0,82.67,23a4.22,4.22,0,0,0,.25-1.48V16H81.68v5.58a3.27,3.27,0,0,1-.16,1.06,2.42,2.42,0,0,1-.47.83,2,2,0,0,1-.76.53,2.7,2.7,0,0,1-2,0,2.1,2.1,0,0,1-.76-.54A2.35,2.35,0,0,1,77,22.6a3.52,3.52,0,0,1-.16-1.06V16ZM44.39,16v9.15h1.5V19.52c0-.11,0-.23,0-.37l0-.4,4.78,6.1a.69.69,0,0,0,.26.23.81.81,0,0,0,.33.06h.88V16H50.61v6c0,.14,0,.28,0,.43l-4.8-6.12-.13-.15L45.61,16a.32.32,0,0,0-.14,0H44.39ZM54,16v9.15h5.77V23.78H55.66V21.19h3.2V19.88h-3.2V17.34h4.06V16Zm8.72,1h1.47a2.34,2.34,0,0,1,1.63.49,1.77,1.77,0,0,1,.54,1.37,1.94,1.94,0,0,1-.14.78,1.69,1.69,0,0,1-.41.61,2.1,2.1,0,0,1-.69.39,2.93,2.93,0,0,1-.93.14H62.67Zm-24.25.38a3,3,0,0,1,1.2.23,2.44,2.44,0,0,1,.91.63,2.82,2.82,0,0,1,.57,1,4.35,4.35,0,0,1,.2,1.35,4.31,4.31,0,0,1-.2,1.35,2.82,2.82,0,0,1-.57,1,2.44,2.44,0,0,1-.91.63,3,3,0,0,1-1.2.23,3.11,3.11,0,0,1-1.21-.23,2.44,2.44,0,0,1-.91-.63,2.83,2.83,0,0,1-.58-1,4.66,4.66,0,0,1,0-2.7,2.83,2.83,0,0,1,.58-1,2.44,2.44,0,0,1,.91-.63A3.11,3.11,0,0,1,38.42,17.33Z"/></svg>